<?xml version="1.0" encoding="UTF-8"?>
<svg width="500px" height="200px" viewBox="0 0 500 200" version="1.1" xmlns="http://www.w3.org/2000/svg" xmlns:xlink="http://www.w3.org/1999/xlink">
    <!-- Generator: Sketch 48.2 (47327) - http://www.bohemiancoding.com/sketch -->
    <title>podia-wm-purple-medium</title>
    <desc>Created with Sketch.</desc>
    <defs></defs>
    <g id="Page-1" stroke="none" stroke-width="1" fill="none" fill-rule="evenodd">
        <g id="podia-wm-purple-medium" fill="#A998E9" fill-rule="nonzero">
            <g id="Podia-Wordmark-Purple" transform="translate(39.000000, 25.500000)">
                <path d="M136.349988,97.3775915 C126.557708,97.3775915 118.620681,89.4407922 118.620681,79.651193 C118.620681,69.8591938 126.557708,61.9223945 136.347588,61.9223945 C146.139868,61.9223945 154.076895,69.8591938 154.076895,79.651193 C154.079295,89.4407922 146.139868,97.3775915 136.349988,97.3775915 M136.349988,37.7999967 C113.234927,37.7999967 94.4999919,56.5367949 94.4999919,79.651193 C94.4999919,102.763191 113.234927,121.49999 136.349988,121.49999 C159.462649,121.49999 178.199985,102.763191 178.199985,79.651193 C178.199985,56.5367949 159.462649,37.7999967 136.349988,37.7999967" id="Fill-1"></path>
                <path d="M41.8499963,96.5220635 C32.0577164,96.5220635 24.1206895,88.6992358 24.1206895,79.0502142 C24.1206895,69.3988271 32.0577164,61.5759994 41.8475962,61.5759994 C51.6398764,61.5759994 59.5769032,69.3988271 59.5769032,79.0478487 C59.5769032,88.6992358 51.6398764,96.5220635 41.8499963,96.5220635 M0.0192005488,78.6102245 L0.0192005488,78.6196867 C0.0240006861,78.3050704 0.0528015093,78.0022817 0.067201921,77.6923965 C0.0576016465,77.9999162 0.0240006861,78.3003393 0.0192005488,78.6102245 M41.8499963,37.7999967 C35.2450075,37.7999967 29.0216296,39.3494229 23.4678708,42.0343063 L23.4678708,41.9869956 C23.0574591,42.1927972 22.6110463,42.3370949 22.1190323,42.3370949 C21.8574248,42.3370949 21.619818,42.2637633 21.3774111,42.2022593 C19.1645478,41.6345307 12.0987458,39.9360758 7.80262304,38.8834123 C7.75462166,38.869219 7.71622057,38.8739501 7.67061926,38.8668535 C7.19780575,38.7533078 6.71299189,38.6776106 6.20657741,38.6776106 C2.77927945,38.6776106 0,41.4169014 0,44.7972524 L0,79.0383865 L0,79.0478487 L0,79.0502142 L0,145.29232 C0,147.064107 1.45444158,148.499987 3.25209296,148.499987 C3.463299,148.499987 21.0894028,143.747625 21.0894028,143.747625 C24.2838942,143.153876 26.518358,141.436497 26.5231582,139.430522 C26.5399586,134.647408 26.5303584,124.118407 26.5255582,119.595502 C26.5303584,118.758102 27.2191781,118.081559 28.0712024,118.081559 C28.2392072,118.081559 28.3976117,118.126504 28.5488161,118.176181 L28.5488161,118.135966 C32.7321356,119.517439 37.1938632,120.298066 41.8475962,120.298066 C64.9626572,120.298066 83.6999928,101.830326 83.6999928,79.0478487 C83.6999928,56.2677365 64.9626572,37.7999967 41.8499963,37.7999967" id="Fill-3"></path>
                <path d="M305.099975,27 C312.554604,27 318.599975,20.9565618 318.599975,13.498755 C318.599975,6.04343817 312.554604,0 305.099975,0 C297.645346,0 291.599975,6.04343817 291.599975,13.498755 C291.599975,20.9565618 297.645346,27 305.099975,27" id="Fill-5"></path>
                <path d="M317.972414,37.7999967 C317.876639,37.7999967 317.611416,37.845636 317.277433,37.9104918 C317.272521,37.9104918 317.26761,37.9080897 317.262698,37.9104918 C317.193937,37.9225021 317.034312,37.956131 316.891878,37.9873579 C316.847674,37.9969662 316.810838,38.0017703 316.766634,38.0113786 C316.727342,38.0209868 316.688049,38.0305951 316.646301,38.0402034 C315.077069,38.3764926 312.353628,39.0298546 309.458283,39.7432682 C302.582147,41.4079 294.708971,43.5961822 294.708971,43.5961822 L294.706515,43.6081926 C292.972746,43.7234917 291.599975,45.1214942 291.599975,46.8461774 L291.599975,113.707687 C291.599975,115.506835 293.127459,116.609383 294.929989,116.964889 C300.509483,118.065035 317.972414,121.49999 317.972414,121.49999 C319.809324,121.49999 321.299972,120.039533 321.299972,118.242788 L321.299972,81.2533721 L321.299972,42.6161393 L321.299972,41.0571984 C321.299972,39.2580509 319.81178,37.8023988 317.972414,37.7999967" id="Fill-7"></path>
                <path d="M379.349967,97.3775915 C369.560087,97.3775915 361.62066,89.4407922 361.62066,79.651193 C361.62066,69.8591938 369.560087,61.9223945 379.349967,61.9223945 C389.139847,61.9223945 397.079274,69.8591938 397.079274,79.651193 C397.079274,89.4407922 389.142247,97.3775915 379.349967,97.3775915 M414.990986,38.6903967 C414.494172,38.6903967 414.016558,38.7647967 413.553345,38.8751967 C413.510144,38.8799967 413.481343,38.8751967 413.435742,38.8847967 C408.983614,39.9815966 402.225021,41.6399964 399.820153,42.2663964 C399.577746,42.3287964 399.342539,42.4031964 399.078531,42.4031964 C398.586517,42.4031964 398.140105,42.2567964 397.729693,42.0479964 L397.729693,42.0959964 C392.175934,39.3719966 385.954956,37.7999967 379.349967,37.7999967 C356.237307,37.7999967 337.499971,56.5367949 337.499971,79.651193 C337.499971,102.763191 356.237307,121.49999 379.349967,121.49999 C385.954956,121.49999 392.175934,119.92799 397.729693,117.20399 L397.729693,117.25199 C398.140105,117.04319 398.586517,116.89679 399.078531,116.89679 C399.342539,116.89679 399.577746,116.97119 399.820153,117.03359 C402.047416,117.61439 409.348425,119.49119 413.658948,120.56159 C413.678149,120.56639 413.690149,120.56639 413.70695,120.57119 C413.742951,120.57839 413.778952,120.58079 413.814953,120.58799 C414.009358,120.62639 414.179763,120.64319 414.328567,120.63839 C414.549374,120.66479 414.76298,120.70559 414.990986,120.70559 C418.418284,120.70559 421.199964,117.92639 421.199964,114.49679 L421.199964,44.8991962 C421.199964,41.4695964 418.418284,38.6903967 414.990986,38.6903967" id="Fill-9"></path>
                <path d="M230.84998,95.0375577 C221.0577,95.0375577 213.120673,87.219195 213.120673,77.5756809 C213.120673,67.9321667 221.0577,60.1138041 230.84758,60.1138041 C240.63986,60.1138041 248.576887,67.9298025 248.576887,77.5756809 C248.576887,87.219195 240.63986,95.0375577 230.84998,95.0375577 Z M272.678376,78.0130552 L272.678376,78.0059627 C272.673576,78.3062143 272.647175,78.5993733 272.630375,78.8948966 C272.642375,78.5993733 272.673576,78.3109427 272.678376,78.0130552 Z M272.699977,19.8966386 L272.699977,14.0452786 C272.699977,14.0405502 272.699977,14.038186 272.699977,14.0334576 L272.699977,11.3690202 C272.699977,9.59824496 271.187934,7.73053813 269.445484,8.16318414 C268.521458,8.39251017 251.608174,12.9151977 251.608174,12.9151977 C251.012956,13.0806907 250.494542,13.274554 250.007328,13.4802381 C248.298479,14.0807414 247.040843,15.2060938 246.496028,16.5796858 C246.455226,16.6742533 246.431226,16.7664565 246.400025,16.8586597 C246.349624,17.014696 246.296822,17.1660039 246.263221,17.3267685 C246.205619,17.6010141 246.174419,17.8752597 246.174419,18.147141 C246.157618,22.9275249 246.167218,32.5308478 246.172018,37.048807 C246.172018,37.0842698 246.152818,37.11264 246.150418,37.1457386 C246.138418,37.3183242 246.112016,37.4885456 246.047214,37.6398535 C246.018414,37.7060507 245.963213,37.7556986 245.924811,37.8171674 C245.862409,37.9235558 245.804807,38.0346725 245.716005,38.1197832 C245.437597,38.396393 245.053586,38.5642502 244.626374,38.5642502 C244.458369,38.5642502 244.299965,38.5193306 244.14876,38.4696827 L244.14876,38.5098739 C239.965441,37.1291893 235.503713,36.349008 230.84998,36.349008 C207.734919,36.349008 188.999984,54.8062068 188.999984,77.5756809 C188.999984,100.342791 207.734919,118.79999 230.84758,118.79999 C237.452569,118.79999 243.675947,117.298732 249.229706,114.615381 C249.640117,114.409697 250.08653,114.265481 250.578544,114.265481 C250.840151,114.265481 251.077758,114.338771 251.320165,114.402604 C251.941783,114.561005 252.820208,114.785602 253.835437,115.043298 C256.900325,115.825844 261.534857,117.003209 264.654946,117.769205 C264.76055,117.795211 264.818152,117.778661 264.916554,117.795211 C265.420568,117.927605 265.941383,118.017444 266.490999,118.017444 C269.918297,118.017444 272.699977,115.279717 272.699977,111.901295 L272.699977,77.5756809 C272.699977,77.5780451 272.699977,77.5827734 272.699977,77.5851376 L272.699977,19.8990028 L272.699977,19.8966386 Z" id="Fill-11"></path>
            </g>
        </g>
    </g>
</svg>